<?xml version="1.0" ?>
<!-- Uploaded to: SVG Repo, www.svgrepo.com, Generator: SVG Repo Mixer Tools -->
<svg fill="#000000" width="800px" height="800px" viewBox="0 0 64 64" id="Layer_1_1_" version="1.1" xml:space="preserve" xmlns="http://www.w3.org/2000/svg" xmlns:xlink="http://www.w3.org/1999/xlink">
<g>
<path d="M63,26c0-3.433-2.007-6.561-5.05-8.06C57.982,17.631,58,17.318,58,17c0-4.963-4.038-9-9-9   c-0.076,0-0.151,0.013-0.228,0.015C47.865,4.005,44.28,1,40,1c-3.483,0-6.505,1.993-8,4.896C30.505,2.993,27.483,1,24,1   c-4.248,0-7.862,2.955-8.775,7.011C15.15,8.01,15.076,8,15,8c-4.962,0-9,4.037-9,9c0,0.305,0.016,0.613,0.049,0.922   C2.999,19.42,1,22.57,1,26c0,2.303,0.877,4.4,2.305,5.993C1.832,33.635,1,35.771,1,38c0,3.432,2.007,6.561,5.05,8.06   C6.018,46.369,6,46.682,6,47c0,4.963,4.038,9,9,9c0.076,0,0.15-0.01,0.225-0.011C16.138,60.045,19.752,63,24,63   c3.483,0,6.505-1.993,8-4.896C33.495,61.007,36.517,63,40,63c4.28,0,7.865-3.005,8.772-7.015C48.849,55.987,48.924,56,49,56   c4.962,0,9-4.037,9-9c0-0.305-0.017-0.612-0.049-0.922C61.001,44.581,63,41.43,63,38c0-2.303-0.877-4.4-2.305-5.993   C62.168,30.365,63,28.229,63,26z M56.493,44.533l-0.785,0.3l0.16,0.825C55.956,46.11,56,46.562,56,47c0,3.859-3.14,7-7,7   c0-4.963-4.038-9-9-9v2c3.86,0,7,3.141,7,7s-3.14,7-7,7s-7-3.141-7-7V16h-2v38c0,3.859-3.14,7-7,7   c-3.247,0-6.013-2.219-6.783-5.288C21.109,54.721,24,51.196,24,47h-2c0,3.859-3.14,7-7,7s-7-3.141-7-7s3.14-7,7-7v-2   c-3.932,0-7.275,2.539-8.497,6.06C4.372,42.824,3,40.51,3,38c0-1.734,0.647-3.395,1.793-4.673C6.265,34.376,8.059,35,10,35v-2   c-3.86,0-7-3.141-7-7c0-2.878,1.812-5.504,4.507-6.533l0.786-0.301l-0.161-0.825C8.044,17.892,8,17.44,8,17c0-3.859,3.14-7,7-7   s7,3.141,7,7h2c0-4.196-2.891-7.721-6.783-8.712C17.987,5.219,20.753,3,24,3c3.86,0,7,3.141,7,7v4h2v-4c0-3.859,3.14-7,7-7   s7,3.141,7,7s-3.14,7-7,7v2c4.962,0,9-4.037,9-9c3.86,0,7,3.141,7,7s-3.14,7-7,7v2c3.932,0,7.275-2.539,8.497-6.061   C59.628,21.175,61,23.49,61,26c0,1.734-0.647,3.395-1.793,4.673C57.735,29.624,55.941,29,54,29c-4.962,0-9,4.037-9,9h2   c0-3.859,3.14-7,7-7s7,3.141,7,7C61,40.878,59.188,43.504,56.493,44.533z"/>
<path d="M43,10h2c0-2.757-2.243-5-5-5v2C41.654,7,43,8.346,43,10z"/>
<path d="M37,54h-2c0,2.757,2.243,5,5,5v-2C38.346,57,37,55.654,37,54z"/>
<path d="M54,41v2c2.757,0,5-2.243,5-5h-2C57,39.654,55.654,41,54,41z"/>
<path d="M39,37h-2c0,3.309,2.691,6,6,6v-2C40.794,41,39,39.206,39,37z"/>
<path d="M41,23v-2c-3.309,0-6,2.691-6,6h2C37,24.794,38.794,23,41,23z"/>
<path d="M25,37h-2c0,3.309,2.691,6,6,6v-2C26.794,41,25,39.206,25,37z"/>
<path d="M40,28h-2c0,3.309,2.691,6,6,6v-2C41.794,32,40,30.206,40,28z"/>
<path d="M27,23v-2c-3.309,0-6,2.691-6,6h2C23,24.794,24.794,23,27,23z"/>
<path d="M14,36h2c0-2.206,1.794-4,4-4v-2C16.691,30,14,32.691,14,36z"/>
<path d="M15,50v2c2.757,0,5-2.243,5-5h-2C18,48.654,16.654,50,15,50z"/>
<path d="M5,26h2c0-1.654,1.346-3,3-3v-2C7.243,21,5,23.243,5,26z"/>
<path d="M15,12v2c1.654,0,3,1.346,3,3h2C20,14.243,17.757,12,15,12z"/>
<path d="M24,5v2c1.654,0,3,1.346,3,3h2C29,7.243,26.757,5,24,5z"/>
</g>
</svg>